<?xml version="1.0" encoding="UTF-8"?>
<svg id="Layer_1" data-name="Layer 1" xmlns="http://www.w3.org/2000/svg" viewBox="0 0 706.97 116.56">
  <defs>
    <style>
      .cls-1 {
        fill: #fff;
        stroke-width: 0px;
      }
    </style>
  </defs>
  <path class="cls-1" d="M673.61,22.9c19.49,0,33.36,14.72,33.36,35.2s-13.87,35.21-33.36,35.21h-31.92l.64-1.5s6.25-1.37,6.25-8.93v-49.55c0-7.56-6.25-8.94-6.25-8.94l-.64-1.49h31.92ZM671.61,89.26c10.66,0,20.5-12.6,20.5-31.16s-9.84-31.25-20.5-31.25h-8.7v62.41h8.7ZM628.8,24.04c-.01-.12-.02-.24-.02-.36,0-2.13,1.86-3.87,4-3.87.16,0,.31,0,.46.03-.72.95-.84,2.71-.91,4.19-.22,4.86.73,12.56,2.65,19.73h-3.99s-4.8-16.9-21.89-16.9h-7.74v29.99l12.57-9.42c.85,2.33,10.87,6.71,15.4,6.71,4.04,0,7.64-2.9,7.64-2.9h1.3l-8.3,7.57s-6.34,6.24-15.03,2.59c-6.14-2.58-8.61-4.52-8.61-4.52l-4.98,3.74v28.65h10.33c15.9,0,23.84-18.47,23.84-18.47h2.35l-3.39,22.52h-54.34l.64-1.5s6.25-1.37,6.25-8.93v-49.55c0-7.56-6.25-8.94-6.25-8.94l-.64-1.49,44.98-.02c2.81,0,3.68,1.16,3.68,1.16h0ZM544.16,22.9c19.49,0,33.36,14.72,33.36,35.2s-13.87,35.21-33.36,35.21h-31.92l.64-1.5s6.25-1.37,6.25-8.93v-49.55c0-7.56-6.25-8.94-6.25-8.94l-.64-1.49h31.92ZM542.16,89.26c10.66,0,20.5-12.6,20.5-31.16s-9.84-31.25-20.5-31.25h-8.7v62.41h8.7ZM490.67,22.9h18.38l-.64,1.5s-6.23,1.37-6.25,8.9v39.27c0,13.59-11.94,21.54-27.17,21.54s-27.95-9.01-27.95-21.54v-39.23c0-7.56-6.25-8.93-6.25-8.93l-.64-1.5h28.11l-.64,1.5s-6.25,1.37-6.25,8.93v39.23c0,8.97,8.44,16.37,18.01,16.37s18.2-8.15,18.2-16.37v-39.27c-.02-7.53-6.25-8.9-6.25-8.9l-.64-1.5h0ZM403.27,21.9c18.93,0,34.27,12.99,34.27,36.16s-15.34,36.17-34.27,36.17-34.25-13-34.25-36.17,15.34-36.16,34.25-36.16h0ZM403.27,90.28c7.19,0,13.13-5.66,16.37-14.94,1.7-4.86,2.65-10.72,2.65-17.28,0-19.06-8.08-32.21-19.03-32.21s-19.01,13.15-19.01,32.21,8.08,32.22,19.01,32.22h0ZM396.05,116.56c-22.61-11.16-44.46-25.41-59.54-52.61h-6.9v18.92c0,7.56,6.25,8.93,6.25,8.93l.65,1.5h-28.11l.63-1.5s6.25-1.37,6.25-8.93v-49.55c0-7.57-6.25-8.93-6.25-8.93l-.63-1.5h29.71c14.39,0,24.46,8.37,24.46,20,0,9.29-7.42,17.13-17.74,19.94,5.38,1.88,9.93,2.93,9.93,2.93,0,0,8.37,24.33,41.29,50.79h0ZM333.86,60c8.33,0,14.38-6.56,14.38-17.1s-5.97-16.05-14.3-16.05h-4.33v33.15h4.25ZM296.58,82.88c0,7.56,6.25,8.93,6.25,8.93l.64,1.49h-28.11l.64-1.49s6.25-1.37,6.25-8.93v-25.96c-12.05.17-15.46,5.99-15.46,5.99,0,0-3.4-5.82-15.46-5.99v25.96c0,7.56,6.25,8.93,6.25,8.93l.64,1.49h-28.11l.64-1.49s6.25-1.37,6.25-8.93v-49.56c0-7.56-6.25-8.93-6.25-8.93l-.64-1.5h28.11l-.64,1.5s-6.25,1.37-6.25,8.93v19.63h30.91v-19.63c0-7.56-6.25-8.93-6.25-8.93l-.64-1.5h28.11l-.64,1.5s-6.25,1.37-6.25,8.93v49.56h0ZM210.51,53.54c9.68,5.17,17.19,11.23,17.19,20.85,0,10.52-9.07,19.84-22.14,19.84-11.29,0-17.62-4.09-21.24-4.09-1.59,0-2.93.99-3.25,2.3h-1.16l-2.16-21.15h2.61c3.54,9.99,10.57,18.98,23.4,18.98,6.65,0,10.9-4.76,10.9-10.15,0-6.83-6.16-12.58-13.43-12.58-3.35,0-6.24,1.23-7.66,3.02-.48-.9-.67-2.2-.53-3.26.33-2.4,1.73-4.05,3.84-4.61-9.66-4.74-18.47-10.45-18.47-21.74,0-10.52,8-19.04,22.14-19.04,6.37,0,12.23,1.8,16.04,4.57.01-.11.03-.24.04-.35.38-2.68,2.32-4.54,4.98-4.17.27.04.54.1.79.18-.54,1.22-.79,2.62-.85,4.09-.2,4.87,1.07,10.41,3.16,16.93h-4.92c-2.42-8.65-8.35-17.27-18.48-17.27-5.85,0-9.89,4.34-9.89,8.95,0,5.37,2.82,9.29,7.23,12.39,2.31,1.62,5.12,2.63,7.94,2.63,2.6,0,4.93-1.05,6.38-2.66.12.47.2.99.2,1.5,0,2.03-1.07,3.82-2.67,4.85h0ZM112.86,72.6v-31.17c0-11.26-12.6-17.04-12.6-17.04l-.65-1.5h19.02s43.89,46.27,43.89,46.27v-35.89c-.03-7.52-6.25-8.89-6.25-8.89l-.65-1.5h18.39l-.65,1.5s-6.22,1.37-6.24,8.89v39.64c0,4.77,1.75,5.21,1.75,5.21,0,0,.76,16.65,5.97,21.56l.42,1.33s-3.3-1.36-7.93-6.24l-49.87-52.58v40.71c0,7.38,6.25,8.89,6.25,8.89l.63,1.5h-21.01l.64-1.5s2.17-.34,4.38-1.79c2.2-1.44,4.43-4.01,4.52-8.47,0-3.64-2.06-6.63-4.52-6.63-.62,0-1.21.18-1.72.51.3-2.41,2.03-3.71,4.09-3.71.79,0,1.51.34,2.15.89h0ZM0,111.75c12.64-11.08,17.43-22.59,17.43-38.87,0-6.1-1.62-8.64-5.04-8.64-.29,0-.57.04-.83.12.68-1.26,2.44-2.71,4.78-2.5,1.06.1,1.08-19,1.08-22.8V13.18c0-6.16-8.09-7.88-8.09-7.88l-.66-1.28h61.11c3.56,0,4.74,1.44,4.86,1.59-.02-.16-.03-.32-.03-.48,0-2.83,2.3-5.13,5.14-5.13.21,0,.41.01.61.04-.96,1.26-1.51,3.05-1.56,5.03-.15,6.27,2.35,18.9,6.3,26.8h-5.4s-8.55-22.51-31.32-22.51h-10.03v44.42l18-15.59c.22,1.58,2.38,3.74,5.79,5.5,3.42,1.77,8.08,3.13,13.3,3.13,4.4,0,8.25-1.26,10.33-3.14l1.1-.17c-2.25,4.23-13.71,10.99-13.71,17.34,0,.78.16,1.49.45,2.09-.03,0-.07,0-.11,0-1.48,0-2.68-1.69-2.68-3.79,0-.22.01-.44.04-.65-.91.09-1.85.14-2.8.14-11.7,0-19.42-5.84-21.11-8.33l-8.59,7.44v6.89c0,14.55-5.74,27.12-13.99,35.82,9.67-6.35,18.09-13.07,18.09-13.07.43,3.42,15.19,8.02,31.42,8.02,10.81,0,19.57-4.42,19.57-9.87,0-1.45-1-2.64-2.25-2.64-.29,0-.58.05-.84.15.56-.95,1.44-1.57,2.45-1.57,1.68,0,3.04,1.72,3.04,3.84,0,6.65-16.91,18.4-18.66,26.41-10.18,0-19.8-2.49-25.96-4.87.3.64.66,1.64.21,2.25l-5.21,7.08-.4-.41c.26-.8.4-1.64.4-2.51,0-5.58-5.67-10.11-12.67-10.11-7.68,0-14.38,7.27-33.56,8.56h0Z"/>
</svg>